# xmcd
#
# Track frame offsets: 
#        150
#        16455
#        33210
#        46930
#        63262
#        75165
#        91205
#        106035
#        124675
#        143432
#        159995
#        185857
#
# Disc length: 2712 seconds
#
# Revision: 0
# Processed by: cddbd v1.5.2PL0 Copyright (c) Steve Scherf et al.
# Submitted via: ExactAudioCopy v1.0b3
#
DISCID=840a960c
DTITLE=Jim Weber - He Lives To Win Hearts (1995)
DYEAR=1995
DGENRE=Blues
TTITLE0=Small
TTITLE1=The Night When The Chameleons Started To Sing
TTITLE2=Dancing On A Moving Truck
TTITLE3=When You See Me
TTITLE4=I've Had Enough
TTITLE5=That's Why The Sky Is Blue
TTITLE6=Mercy Me
TTITLE7=The Glory Of The Field
TTITLE8=He Doesn't Have A Prayer (But I Do)
TTITLE9=Only You Can Say
TTITLE10=Out On The Isthmus
TTITLE11=I Want To See Jesus
EXTD=
EXTT0=
EXTT1=
EXTT2=
EXTT3=
EXTT4=
EXTT5=
EXTT6=
EXTT7=
EXTT8=
EXTT9=
EXTT10=
EXTT11=
PLAYORDER=
